<svg xmlns="http://www.w3.org/2000/svg" viewBox="0 0 64 64">
  <rect x="3" y="3" width="58" height="58" rx="17" fill="#fff"/>
  <rect x="3" y="3" width="58" height="58" rx="17" fill="none" stroke="#d9e0ec" stroke-width="2"/>
  <path fill="#101524" d="M21 43.3c-4.7 0-8.5-3.3-8.5-7.4 0-3.9 3.4-7.1 7.8-7.4 1.7-6 7.3-10.2 13.8-10.2 7.9 0 14.3 6.2 14.5 13.9 2.1 1.2 3.4 3.3 3.4 5.7 0 3.7-3.3 6.7-7.3 6.7h-4.5v-4h4.5c1.8 0 3.3-1.2 3.3-2.7 0-1.1-.8-2.1-2.1-2.5l-1.5-.5.1-1.6c.2-6.2-4.5-11.2-10.4-11.2-5.1 0-9.5 3.5-10.5 8.4l-.4 1.8-2-.1H21c-2.5 0-4.5 1.7-4.5 3.7s2 3.4 4.5 3.4h3.5v4H21z"/>
  <path fill="#4f72d8" d="M36.5 31v14c0 4-3.4 6.3-7.1 6.3-3.2 0-5.9-1.8-5.9-4.5 0-2.8 2.8-4.7 6.2-4.7 1.1 0 2.1.2 2.9.6v-9.5l12-2.6v4.1l-8.1 1.8z"/>
</svg>
